:SAMPLES-PER-SECOND 30
:FULLY-SPECIFIED
:DEGREES
409
root  -14.2068 35.84 -5.47769 -41.5815 -83.6863 30.9286
RightUpLeg  -21.6281 -0.903506 -11.2754
RightLeg  72.0857 -6.03143 -21.0355
RightFoot  -13.8023 -0.0392326 2.48415
RightToes  -4.65663e-010 0 -3.6325e-017
Spine  26.3918 2.92505 -0.188899
Spine1  7.48633 3.99737 -2.92577
HEad  0.669313 1.10622 -5.54066
LeftShoulder1  6.8507 -11.0685 -40.7312
LeftArm  -11.3912 22.7684 -27.4305
LeftForeArm  42.5073 -28.6066 -3.85315
LeftHand  -0.244104 0.0205437 5.32207
RightShoulder  5.07572 9.16179 34.1255
RightArm  -1.01313 1.90564 43.8205
RightForeArm  1.90511 38.2509 8.65868
RightHand  -3.71549 9.57819 -28.5548
LeftUpLeg  -27.1586 9.24313 -11.6857
LeftLeg  43.0398 5.52875 5.90679
LeftFoot  -6.64079 -0.4087 10.9306
LeftToes  -5.82109e-011 -4.83791e-012 -1.00937e-011
410
root  -15.1774 36.4858 -5.66534 -29.928 -81.4712 20.6112
RightUpLeg  -26.464 0.516436 -10.8483
RightLeg  59.758 -9.62741 -17.8025
RightFoot  -12.5477 -0.0485565 3.79013
RightToes  -4.65663e-010 0 -3.6325e-017
Spine  27.9043 1.68573 -1.91214
Spine1  6.27325 1.8284 -2.12658
HEad  0.121236 2.58575 -4.57381
LeftShoulder1  7.03885 -11.3663 -41.0222
LeftArm  -12.7611 17.7743 -30.5917
LeftForeArm  60.6527 -46.8796 -7.98049
LeftHand  -0.244104 0.0205437 5.32207
RightShoulder  5.23627 9.44085 34.4977
RightArm  2.64124 1.60472 43.2551
RightForeArm  -1.92388 30.4148 6.72238
RightHand  -3.53856 9.50207 -27.3988
LeftUpLeg  -25.3444 7.67819 -11.3033
LeftLeg  40.6341 4.64003 4.64781
LeftFoot  -6.81844 -0.355936 9.96516
LeftToes  -5.82109e-011 -4.83791e-012 -1.00937e-011
411
root  -16.2396 37.2267 -5.80022 -21.015 -78.8991 12.5793
RightUpLeg  -28.0941 -0.379227 -10.5978
RightLeg  44.5204 -11.1284 -11.8634
RightFoot  -8.08279 -0.211802 5.39414
RightToes  -4.65663e-010 0 -3.6325e-017
Spine  28.8081 0.0968023 -2.25591
Spine1  6.19488 0.0507281 -2.31284
HEad  -0.570504 3.1148 -4.04842
LeftShoulder1  7.11373 -11.576 -40.8703
LeftArm  -11.3274 12.5259 -32.4808
LeftForeArm  74.154 -63.8739 -15.8087
LeftHand  -0.244104 0.0205437 5.32207
RightShoulder  5.37082 9.75828 34.5439
RightArm  5.06981 -0.700356 42.3813
RightForeArm  -0.334726 26.5134 5.71238
RightHand  -3.50612 9.41401 -27.3103
LeftUpLeg  -22.3847 6.03793 -10.3833
LeftLeg  37.5173 3.55053 3.29822
LeftFoot  -8.14193 -0.167855 7.74174
LeftToes  -5.82109e-011 -4.83791e-012 -1.00937e-011
412
root  -17.501 37.9492 -5.87003 -15.9052 -76.9119 8.23285
RightUpLeg  -28.0259 -3.97524 -9.42502
RightLeg  29.7272 -8.59598 -5.56239
RightFoot  -2.72039 -0.544133 6.96868
RightToes  -4.65663e-010 0 -3.6325e-017
Spine  28.2044 -0.672429 -2.35204
Spine1  6.35623 -0.833597 -1.84969
HEad  0.0620799 2.84753 -4.23236
LeftShoulder1  7.20994 -11.8637 -40.6298
LeftArm  -8.77748 7.3337 -34.0469
LeftForeArm  87.8794 -75.9204 -32.9342
LeftHand  -0.244104 0.0205437 5.32207
RightShoulder  5.35196 9.81107 34.2442
RightArm  7.34075 -4.82195 40.6334
RightForeArm  0.955962 24.9686 5.29831
RightHand  -3.64897 9.60772 -28.0231
LeftUpLeg  -18.8704 4.18001 -9.31666
LeftLeg  33.8931 3.18067 2.65573
LeftFoot  -8.93376 -0.0667938 5.80805
LeftToes  -5.82109e-011 -4.83791e-012 -1.00937e-011
413
root  -18.9179 38.5635 -5.93885 -14.6444 -75.5874 7.5632
RightUpLeg  -27.54 -9.11219 -7.53191
RightLeg  18.9789 -3.06407 -1.25191
RightFoot  0.353671 -0.84758 8.314
RightToes  -4.65663e-010 0 -3.6325e-017
Spine  26.6812 -0.412717 -3.59566
Spine1  6.14912 -1.19565 -0.0128556
HEad  1.71016 2.45978 -4.60087
LeftShoulder1  7.16867 -11.9266 -40.1964
LeftArm  -6.23299 3.09512 -36.0868
LeftForeArm  121.928 -81.6815 -74.6482
LeftHand  -0.244104 0.0205437 5.32207
RightShoulder  5.28671 9.68169 34.1455
RightArm  10.455 -9.85549 37.9645
RightForeArm  -0.338696 24.5575 5.27389
RightHand  -3.61633 9.55552 -27.8713
LeftUpLeg  -15.2841 2.09263 -8.75749
LeftLeg  30.6192 3.67878 2.70425
LeftFoot  -9.24898 -0.0356365 5.00315
LeftToes  -5.82109e-011 -4.83791e-012 -1.00937e-011
414
root  -20.3924 39.0743 -6.0077 -15.4017 -74.8423 8.34525
RightUpLeg  -26.3188 -11.652 -6.58696
RightLeg  12.3619 0.497787 0.908868
RightFoot  1.3509 -0.943238 8.55729
RightToes  -4.65663e-010 0 -3.6325e-017
Spine  25.1505 0.123956 -5.06889
Spine1  6.04223 -1.32997 1.88187
HEad  3.42623 2.14324 -4.7498
LeftShoulder1  6.98301 -11.7493 -39.5547
LeftArm  -4.14237 -0.0368699 -38.1179
LeftForeArm  163.519 -80.2739 -122.247
LeftHand  -0.244104 0.0205437 5.32207
RightShoulder  5.2942 9.67083 34.2345
RightArm  13.0477 -15.0119 35.3134
RightForeArm  -1.53048 24.4622 5.31019
RightHand  -3.3106 8.98632 -26.5853
LeftUpLeg  -11.2234 0.532727 -8.41459
LeftLeg  27.7526 4.26063 2.78187
LeftFoot  -10.3891 0.0262936 4.16606
LeftToes  -5.82109e-011 -4.83791e-012 -1.00937e-011
415
root  -21.9159 39.4403 -6.04193 -16.4694 -74.406 9.04709
RightUpLeg  -24.1398 -10.1828 -7.38876
RightLeg  8.25464 -0.189198 1.91775
RightFoot  2.19406 -0.868751 7.44579
RightToes  -4.65663e-010 0 -3.6325e-017
Spine  23.4697 0.352571 -5.81384
Spine1  6.30646 -1.36805 2.70022
HEad  5.06534 1.8926 -4.83464
LeftShoulder1  6.78993 -11.5331 -38.9594
LeftArm  -2.83214 -2.33981 -39.3388
LeftForeArm  -177.631 -76.1409 -143.661
LeftHand  -0.244104 0.0205437 5.32207
RightShoulder  5.28817 9.70468 34.0873
RightArm  14.3719 -19.726 33.6636
RightForeArm  -1.26066 23.8289 5.16927
RightHand  -2.98795 8.26816 -25.3217
LeftUpLeg  -6.79707 0.075498 -7.96081
LeftLeg  25.1052 4.2262 2.50706
LeftFoot  -12.1207 0.0944775 3.08701
LeftToes  -5.82109e-011 -4.83791e-012 -1.00937e-011
416
root  -23.5113 39.6415 -6.04599 -18.0072 -73.7903 10.3119
RightUpLeg  -21.7653 -9.55168 -8.15377
RightLeg  6.03063 -1.08535 2.14681
RightFoot  2.77345 -0.745641 6.16146
RightToes  -4.65663e-010 0 -3.6325e-017
Spine  21.3619 0.278616 -6.51729
Spine1  6.68488 -1.54241 2.93937
HEad  6.75289 1.86238 -5.02893
LeftShoulder1  6.65973 -11.3098 -38.7697
LeftArm  -2.47834 -3.90486 -39.5402
LeftForeArm  -168.89 -72.3842 -152.674
LeftHand  -0.244104 0.0205437 5.32207
RightShoulder  5.12025 9.45632 33.5614
RightArm  14.4715 -23.5638 33.1091
RightForeArm  -0.32652 22.2883 5.05207
RightHand  -2.79754 7.78063 -24.6115
LeftUpLeg  -2.56072 0.580549 -7.62889
LeftLeg  22.7195 3.3659 1.8946
LeftFoot  -13.4705 0.133697 2.78299
LeftToes  -5.82109e-011 -4.83791e-012 -1.00937e-011
417
root  -25.1701 39.7099 -6.04985 -20.6121 -72.8694 12.8508
RightUpLeg  -19.2759 -10.3303 -9.09869
RightLeg  5.64709 -3.04783 1.98775
RightFoot  1.98514 -0.645451 5.62761
RightToes  -4.65663e-010 0 -3.6325e-017
Spine  18.9724 0.149414 -7.90269
Spine1  7.12341 -1.91836 3.36785
HEad  8.18081 2.02293 -5.22521
LeftShoulder1  6.62206 -11.0644 -39.2437
LeftArm  -2.92537 -4.62428 -38.797
LeftForeArm  -164.318 -69.9682 -156.576
LeftHand  -0.244104 0.0205437 5.32207
RightShoulder  4.83535 8.93873 32.92
RightArm  12.2704 -26.5672 33.081
RightForeArm  1.25325 20.2761 5.38544
RightHand  -2.63253 7.36423 -23.9384
LeftUpLeg  1.31055 1.80332 -7.47583
LeftLeg  20.809 1.6235 0.961422
LeftFoot  -14.873 0.178878 2.92103
LeftToes  -5.82109e-011 -4.83791e-012 -1.00937e-011
418
root  -26.8756 39.7054 -6.04393 -22.708 -72.2624 15.2036
RightUpLeg  -17.02 -11.4703 -9.73447
RightLeg  6.45114 -6.9477 1.53454
RightFoot  1.54274 -0.534279 4.82353
RightToes  -4.65663e-010 0 -3.6325e-017
Spine  16.1541 0.0314885 -8.98499
Spine1  7.78853 -2.19829 3.84094
HEad  9.22542 2.21917 -5.47062
LeftShoulder1  6.70498 -10.8758 -40.352
LeftArm  -3.92312 -4.29627 -37.1605
LeftForeArm  -162.616 -69.0657 -157.809
LeftHand  -0.244104 0.0205437 5.32207
RightShoulder  4.57325 8.41043 32.4442
RightArm  7.79939 -29.1611 33.1214
RightForeArm  3.00425 18.4068 5.85155
RightHand  -2.45466 6.88596 -23.2199
LeftUpLeg  4.82511 3.11214 -6.88673
LeftLeg  19.112 -0.286805 -0.0952969
LeftFoot  -16.7801 0.211774 2.35964
LeftToes  -5.82109e-011 -4.83791e-012 -1.00937e-011
419
root  -28.6103 39.6861 -5.98372 -21.173 -72.838 14.4879
RightUpLeg  -16.011 -12.3778 -8.87545
RightLeg  7.83584 -10.6974 1.28294
RightFoot  4.0767 -0.240447 2.08678
RightToes  -4.65663e-010 0 -3.6325e-017
Spine  12.6147 -0.22625 -7.78072
Spine1  8.40338 -2.06677 3.61852
HEad  10.3204 2.79743 -6.05942
LeftShoulder1  6.82686 -10.6685 -41.7982
LeftArm  -5.23804 -2.68714 -34.9122
LeftForeArm  -163.808 -69.8303 -156.781
LeftHand  -0.244104 0.0205437 5.32207
RightShoulder  4.3383 7.8739 32.1877
RightArm  2.27557 -31.2695 33.084
RightForeArm  4.46503 16.5131 6.18316
RightHand  -2.353 6.53045 -22.9302
LeftUpLeg  7.7328 3.7642 -5.28961
LeftLeg  17.2417 -1.01399 -0.536369
LeftFoot  -18.4169 0.208807 1.569
LeftToes  -5.82109e-011 -4.83791e-012 -1.00937e-011
420
root  -30.333 39.6518 -5.86186 -14.1559 -74.8833 8.40765
RightUpLeg  -16.5804 -13.8766 -5.685
RightLeg  10.2811 -10.3331 1.38291
RightFoot  7.82047 0.369181 -1.89493
RightToes  -4.65663e-010 0 -3.6325e-017
Spine  9.18706 -0.529776 -3.51698
Spine1  8.46596 -1.48828 2.28613
HEad  11.5714 4.43654 -7.00692
LeftShoulder1  6.8305 -10.2357 -43.2255
LeftArm  -6.73815 0.250153 -32.7789
LeftForeArm  -168.255 -72.6052 -152.337
LeftHand  -0.244104 0.0205437 5.32207
RightShoulder  4.10119 7.25922 32.1626
RightArm  -3.4158 -32.0731 32.875
RightForeArm  5.97554 14.1333 6.33731
RightHand  -2.29608 6.29425 -22.827
LeftUpLeg  9.96899 3.53713 -2.74122
LeftLeg  16.0276 0.329002 0.113204
LeftFoot  -19.6515 0.203106 1.17268
LeftToes  -5.82109e-011 -4.83791e-012 -1.00937e-011
421
root  -31.973 39.5648 -5.74302 -2.06282 -77.6361 -3.59195
RightUpLeg  -17.4821 -16.5574 -0.700426
RightLeg  14.2472 -5.27979 1.03082
RightFoot  8.18516 0.838144 -4.57456
RightToes  -4.65663e-010 0 -3.6325e-017
Spine  7.47878 -0.602403 2.01593
Spine1  8.12936 -0.773926 0.766128
HEad  12.2904 7.16433 -8.06328
LeftShoulder1  6.71453 -9.67022 -44.3646
LeftArm  -8.73097 4.11262 -31.6427
LeftForeArm  179.519 -77.4254 -139.115
LeftHand  -0.244104 0.0205437 5.32207
RightShoulder  3.99006 6.86851 32.5239
RightArm  -8.35679 -30.8655 32.3192
RightForeArm  6.79675 11.7229 6.10719
RightHand  -2.1779 5.90958 -22.4008
LeftUpLeg  11.618 2.87375 0.218897
LeftLeg  17.5579 2.88098 1.35447
LeftFoot  -21.1351 0.0697355 -0.57189
LeftToes  -5.82109e-011 -4.83791e-012 -1.00937e-011
